<svg id="ediGlbhBERW1" xmlns="http://www.w3.org/2000/svg" xmlns:xlink="http://www.w3.org/1999/xlink" viewBox="0 221 1280 285" shape-rendering="geometricPrecision" text-rendering="geometricPrecision" project-id="ea43b79c7d984baab25cfb2551b6a088" export-id="4d760b5047d44807909c8a7ddabfeeee" cached="false">
<style><![CDATA[
#ediGlbhBERW2_to {animation: ediGlbhBERW2_to__to 3000ms linear infinite normal forwards}@keyframes ediGlbhBERW2_to__to { 0% {transform: translate(137px,374px)} 23.333333% {transform: translate(142.669271px,365.090909px)} 40% {transform: translate(142px,360px)} 56.666667% {transform: translate(139px,365px)} 73.333333% {transform: translate(135px,362px)} 86.666667% {transform: translate(132.683396px,367.999886px)} 100% {transform: translate(137px,374px)}} #ediGlbhBERW2_tr {animation: ediGlbhBERW2_tr__tr 3000ms linear infinite normal forwards}@keyframes ediGlbhBERW2_tr__tr { 0% {transform: rotate(360deg)} 40% {transform: rotate(362deg)} 56.666667% {transform: rotate(362deg)} 100% {transform: rotate(360deg)}} #ediGlbhBERW13_ts {animation: ediGlbhBERW13_ts__ts 3000ms linear infinite normal forwards}@keyframes ediGlbhBERW13_ts__ts { 0% {transform: translate(77.509831px,436.49646px) scale(1,1)} 56.666667% {transform: translate(77.509831px,436.49646px) scale(1.040667,1.04)} 100% {transform: translate(77.509831px,436.49646px) scale(1,1)}} #ediGlbhBERW14_ts {animation: ediGlbhBERW14_ts__ts 3000ms linear infinite normal forwards}@keyframes ediGlbhBERW14_ts__ts { 0% {transform: translate(223.499924px,335.500046px) scale(1,1)} 56.666667% {transform: translate(223.499924px,335.500046px) scale(1,1.04)} 100% {transform: translate(223.499924px,335.500046px) scale(1,1)}} #ediGlbhBERW15_ts {animation: ediGlbhBERW15_ts__ts 3000ms linear infinite normal forwards}@keyframes ediGlbhBERW15_ts__ts { 0% {transform: translate(178.500206px,277.000023px) scale(1,1)} 56.666667% {transform: translate(178.500206px,277.000023px) scale(1.04,1.04)} 100% {transform: translate(178.500206px,277.000023px) scale(1,1)}}
]]></style>
<g id="ediGlbhBERW2_to" transform="translate(137,374)"><g id="ediGlbhBERW2_tr" transform="rotate(360)"><g transform="translate(-137.410245,-367.5)"><path d="M96.6577,260.5c-3.701,1.952-7.4021,3.904-10.2066,5.822-2.8046,1.917-6.6206,5.683-6.6206,5.683-2,1.71-4.0459,3.234-5.3792,4.574-1.3334,1.34-2.4138,2.333-2.6207,3.465s-.1379,2.727,1.3793,3.327c1.5172.601,5.0344.555,7.724.277c2.6896-.277,5.6781-1.201,8.4136-1.94c2.7356-.739,5.6781-1.895,7.9999-2.495c2.3218-.601,3.7236-.855,5.9306-1.109s5.425-.162,7.311-.416c1.885-.254,2.758-.832,3.999-1.109c1.242-.277,4.437-.808,3.449-.554-.989.254-6.759,1.201-9.379,2.079-2.621.878-4.736,2.171-6.345,3.188s-2.23,1.894-3.3105,2.911c-1.0804,1.016-2.2988,2.125-3.1723,3.188s-1.4483,1.756-2.069,3.188-1.6091,4.158-1.6551,5.406c-.0459,1.248.2989,1.987,1.3793,2.079c1.0805.093,2.3678-.393,5.1034-1.525c2.7352-1.132,7.7242-3.511,11.3102-5.267s7.586-3.742,10.207-5.267c2.62-1.525,3.793-2.541,5.517-3.881s3.011-3.05,4.827-4.159s3.471-2.171,6.069-2.495c2.598-.323,5.54-.161,9.517.555s9.724,1.917,14.345,3.742c4.62,1.825,8.896,4.136,13.379,7.208c4.483,3.073,9.241,6.307,13.517,11.228s8.873,11.412,12.138,18.297c3.264,6.884,6.091,14.947,7.448,23.009c1.356,8.063,2.528,15.387.689,25.367s-7.448,25.481-11.724,34.514c-4.275,9.033-8.459,14.439-13.93,19.683-5.472,5.245-12.575,9.103-18.897,11.782-6.321,2.68-11.609,3.812-19.034,4.297-7.425.486-16.344.786-25.517-1.386-9.172-2.171-21.0106-5.96-29.5163-11.643-8.5056-5.683-16.3445-13.838-21.5168-22.455-5.1723-8.618-8.4596-18.759-9.5171-29.248-1.0574-10.488-.023-23.287,3.1724-33.683s10.8274-21.646,15.9997-28.693c5.1723-7.046,15.0342-13.584,15.0342-13.584v0" fill="none" fill-rule="evenodd" stroke="#172c51" stroke-width="5.33333" stroke-linecap="round" stroke-miterlimit="8"/><path d="M96.5001,261.758c1.0258-1.702,2.5587-3.267,4.1489-4.555c1.591-1.288,3.504-2.116,5.395-3.174c1.89-1.058,4.633-2.277,5.947-3.174s.692-.874,1.937-2.209c1.245-1.334,3.803-4.048,5.532-5.796s3.182-3.681,4.842-4.693c1.659-1.012,4.794-2.208,5.117-1.38s-2.42,4.44-3.181,6.349-1.199,4.025-1.383,5.106c-.185,1.082-.023,1.266.276,1.381.3.115,1.522-.691,1.522-.691l5.947-2.898c1.499-.69,2.121-.92,3.043-1.242s1.66-.575,2.49-.69s2.375-.414,2.49,0-1.199,1.403-1.798,2.484c-.6,1.081-1.891,3.336-1.798,4.003.092.667,1.129.253,2.351,0s3.389-1.104,4.979-1.519c1.591-.414,3.066-.828,4.565-.966c1.498-.138,3.389-.138,4.426.138s2.42.989,1.798,1.519c-.623.529-3.85,1.081-5.533,1.656s-3.342,1.219-4.564,1.794-3.297,1.38-2.766,1.656c.53.276,3.596-.138,5.947,0c2.352.138,4.495.161,8.161.828c3.665.667,8.23,1.403,13.831,3.175c5.602,1.771,12.679,3.726,19.78,7.452c7.1,3.727,15.906,8.396,22.822,14.906s13.739,14.238,18.672,24.152c4.934,9.914,10.074,25.464,10.927,35.332s1.43,16.792.83,25.533c-.599,8.741-2.904,17.873-4.426,26.913-1.521,9.04-2.812,18.54-4.703,27.326-1.89,8.787-3.158,16.884-6.639,25.395s-11.111,21.047-14.246,25.671c-3.135,4.623-3.712,2.484-4.565,2.07s-.23-3.404-.553-4.554c-.323-1.151-.669-2.117-1.383-2.347-.715-.23-1.453-.299-2.905.966-1.452,1.266-3.711,4.509-5.809,6.625s-5.51,5.567-6.778,6.073c-1.267.506-.899-1.84-.829-3.037.069-1.196,1.198-3.174,1.244-4.14s-.299-1.587-.968-1.656c-.668-.069-1.637.115-3.043,1.242s-3.181,3.22-5.394,5.52c-2.213,2.301-6.178,6.418-7.884,8.281-1.706,1.864-2.098,3.083-2.351,2.899-.254-.184.207-2.301.829-4.003.623-1.702,2.352-4.393,2.905-6.21.553-1.818.922-3.566.415-4.693s-2.029-1.702-3.458-2.07-4.126-.023-5.118-.138c-.991-.115-1.521.414-.83-.552.692-.966,4.127-3.75,4.98-5.245s.645-2.806.138-3.726-3.089-1.104-3.181-1.794-.161-.874,2.628-2.347c2.789-1.472,9.59-3.795,14.108-6.486s9.267-6.441,13.002-9.661c3.734-3.221,7.699-7.936,9.405-9.661s1.268-1.208.83-.69" fill="none" fill-rule="evenodd" stroke="#172c51" stroke-width="5.33333" stroke-linecap="round" stroke-miterlimit="8"/><path d="M167.5,470.402c-3.679,1.383-9.082,3.228-14.762,4.243-5.679,1.014-10.914,1.967-19.314,1.844-8.401-.123-20.265.185-31.088-2.582-10.8218-2.767-24.4953-7.963-33.846-14.02s-16.2487-14.359-22.2577-22.322-10.5157-15.926-13.7961-25.457-5.6104-19.8-5.8863-31.73c-.2759-11.929.5212-27.179,4.2308-39.846s11.1595-26.319,18.0269-36.157C55.675,294.536,63.83,288.018,71.9851,281.5" fill="none" fill-rule="evenodd" stroke="#172c51" stroke-width="5.33333" stroke-linecap="round" stroke-miterlimit="8"/><path d="M134.553,434.5l-2.227-2.757c-.65-.804-2.344-1.609-1.671-2.068.673-.46,3.736-.253,5.708-.689c1.972-.437,4.246-1.103,6.125-1.93c1.88-.827,3.945-1.907,5.151-3.033c1.207-1.126,1.926-2.298,2.088-3.723.163-1.424-.905-3.883-1.114-4.825-.208-.942-.812-.39-.139-.827.673-.436,2.97-.988,4.177-1.792c1.206-.804,2.529-1.907,3.062-3.033.534-1.126.441-2.527.14-3.722-.302-1.195-1.253-2.459-1.949-3.447s-3.829-2.09-2.228-2.481s7.03.712,11.833.138c4.803-.575,11.833-1.31,16.984-3.585c5.151-2.274,10.046-6.318,13.921-10.063c3.875-3.746,7.378-9.628,9.327-12.408s1.74-3.148,2.367-4.273c.626-1.126,1.009-1.804,1.392-2.482" fill="none" fill-rule="evenodd" stroke="#172c51" stroke-width="5.33333" stroke-linecap="round" stroke-miterlimit="8"/><path d="M106,260.672c.766,1.231,1.335,2.345,2.364,3.065c1.028.72,2.538,1.347,3.808,1.254.831-.186,2.67-.813,3.808-1.811c1.138-.999,2.079-2.589,3.02-4.18" fill="none" fill-rule="evenodd" stroke="#172c51" stroke-width="4" stroke-linecap="round" stroke-miterlimit="8"/><path d="M79.5001,278.5c.7499-1.545.3889-.788,1.1111-2.182.7222-1.151,1.0833-1.182,1.8889-1.818" fill="none" fill-rule="evenodd" stroke="#172c51" stroke-width="0.666667" stroke-opacity="0.2" stroke-linecap="round" stroke-miterlimit="8"/><path d="M148.5,415.214c3.865.283,7.731.567,11.737-.261c4.007-.828,9.593-3.465,12.303-4.707c2.711-1.242,3.335-1.994,3.96-2.746" fill="none" fill-rule="evenodd" stroke="#172c51" stroke-width="5.33333" stroke-linecap="round" stroke-miterlimit="8"/><path d="M166.5,472.5l19.128-9.448c4.951-2.564,7.258-4.116,9.903-6.208s4.646-4.083,5.969-6.344" fill="none" fill-rule="evenodd" stroke="#172c51" stroke-width="5.33333" stroke-linecap="round" stroke-miterlimit="8"/><path d="M190.5,480.5c4.26-7.108,8.52-14.216,12.02-19.716s6.24-9.392,8.98-13.284" fill="none" fill-rule="evenodd" stroke="#172c51" stroke-width="5.33333" stroke-linecap="round" stroke-miterlimit="8"/><path d="M215.5,428.5c1.998-1.999,3.996-3.998,5.089-5.699c1.094-1.7,1.005-4.638,1.474-4.506.468.133.357,5.301,1.339,5.301s3.46-3.136,4.553-5.301c1.094-2.164,1.585-5.721,2.009-7.686.424-1.966.48-3.038.536-4.109" fill="none" fill-rule="evenodd" stroke="#172c51" stroke-width="5.33333" stroke-linecap="round" stroke-miterlimit="8"/><g id="ediGlbhBERW13_ts" transform="translate(77.509831,436.49646) scale(1,1)"><path d="M34.4622,414.865c1.9501-.23,4.336.184,7.4332-.414c3.0971-.598,7.892-1.795,11.1497-3.175c3.2577-1.381,6.2402-3.037,8.3967-5.108s3.5789-5.154,4.5425-7.317c.9635-2.163.7341-4.648,1.2388-5.66s1.2848-.69,1.7895-.414-.0918.184,1.2388,2.071c1.3307,1.886,3.6478,5.637,6.7449,9.249c3.0972,3.613,7.0661,8.767,11.838,12.425s11.6547,7.271,16.7937,9.526s10.897,3.129,14.04,4.003c0,0,3.877.529,4.818,1.243.94.713.688.966.826,3.037.137,2.071.344,4.556,0,9.387-.344,4.832-1.17,14.105-2.065,19.604s-2.134,10.538-3.304,13.391-.619,3.498-3.716,3.728-7.387-.138-14.866-2.347c-7.4795-2.209-21.084-5.729-30.0083-10.906-8.9244-5.178-17.757-14.128-23.5383-20.156-5.7813-6.029-8.305-11.735-11.1497-16.014-2.8448-4.28-4.7719-7.179-5.919-9.664s-1.5831-4.165-.9636-5.246c.6194-1.082,2.7301-1.013,4.6801-1.243Z" transform="translate(-77.50983,-436.496459)" fill="#ccf" fill-rule="evenodd" stroke="#172c51" stroke-width="3" stroke-miterlimit="8"/></g><g id="ediGlbhBERW14_ts" transform="translate(223.499924,335.500046) scale(1,1)"><path d="M207.032,319.444c-2.21.414-3.292.483-4.419.827-1.128.345-1.842.552-2.348,1.242-.507.689-.944,1.401-.691,2.895s.645,2.597,2.21,6.067s2.44,7.423,3.038,11.445c.599,4.022.484,9.744.553,12.686.069,2.941-.346,3.562-.138,4.964.207,1.402.207,2.689,1.381,3.447s2.21.781,5.662,1.103c3.453.322,15.055.827,15.055.827c4.627.23,9.875.575,12.706.552s3.2-.253,4.282-.689c1.081-.437,1.68-.414,2.209-1.931.53-1.517.99-3.562.967-7.17s-.391-9.514-1.105-14.478c-.713-4.964-1.91-10.48-3.176-15.306s-3.131-10.365-4.42-13.651-2.417-5.01-3.315-6.067c-.897-1.057-1.404-.736-2.071-.276-.668.46-1.105,1.977-1.934,3.034s-1.68,2.275-3.038,3.309c-1.359,1.034-5.111,2.896-5.111,2.896-2.186,1.011-4.741,1.907-7.458,2.62-2.716.712-6.629,1.241-8.839,1.654Z" transform="translate(-223.499924,-335.500046)" fill="#9fc" fill-rule="evenodd" stroke="#172c51" stroke-width="3" stroke-miterlimit="8"/></g><g id="ediGlbhBERW15_ts" transform="translate(178.500206,277.000023) scale(1,1)"><path d="M161.796,268.375c-.876,2.151-2.766,5.331-4.011,7.138-1.245,1.808-2.766,2.815-3.458,3.707-.691.892-1.037,1.121-.691,1.647.345.526,1.498.87,2.766,1.51c1.268.641,3.042,1.419,4.84,2.334s3.458,1.67,5.947,3.157c2.49,1.487,6.662,4.141,8.99,5.765c2.328,1.625,3.896,3.181,4.979,3.981c1.083.801.507,1.007,1.521.824c1.015-.183,2.559-.503,4.564-1.922c2.006-1.418,5.21-3.958,7.469-6.589s4.656-6.406,6.085-9.197s2.236-5.583,2.49-7.55c.253-1.968.576-2.723-.969-4.256-1.544-1.533-4.656-3.157-8.298-4.941-3.642-1.785-9.381-4.393-13.553-5.766-4.173-1.373-8.829-2.082-11.48-2.471-2.65-.389-3.457-.297-4.425.137-.969.435-1.13,1.35-1.383,2.471-.254,1.121-.023,2.883-.139,4.256-.115,1.372-.369,3.615-1.244,5.765Z" transform="translate(-178.500206,-277.000023)" fill="#fcc" fill-rule="evenodd" stroke="#172c51" stroke-width="3" stroke-miterlimit="8"/></g></g></g></g><text dx="0" dy="0" font-family="&quot;Cooper&quot;" font-size="178" font-weight="400" transform="translate(276.1371 419.071072)" stroke-width="0"><tspan y="0" font-weight="400" stroke-width="0"><![CDATA[
Ouro-Tools
]]></tspan></text></svg>
