<svg class="main-svg" xmlns="http://www.w3.org/2000/svg" xmlns:xlink="http://www.w3.org/1999/xlink" width="1343" height="675" style="" viewBox="0 0 1343 675"><rect x="0" y="0" width="1343" height="675" style="fill: rgb(255, 255, 255); fill-opacity: 1;"/><defs id="defs-ad45a5"><g class="clips"><clipPath id="clipad45a5xyplot" class="plotclip"><rect width="1055" height="495"/></clipPath><clipPath class="axesclip" id="clipad45a5x"><rect x="80" y="0" width="1055" height="675"/></clipPath><clipPath class="axesclip" id="clipad45a5y"><rect x="0" y="100" width="1343" height="495"/></clipPath><clipPath class="axesclip" id="clipad45a5xy"><rect x="80" y="100" width="1055" height="495"/></clipPath></g><g class="gradients"/><g class="patterns"/></defs><g class="bglayer"/><g class="layer-below"><g class="imagelayer"/><g class="shapelayer"/></g><g class="cartesianlayer"><g class="subplot xy"><g class="layer-subplot"><g class="shapelayer"/><g class="imagelayer"/></g><g class="minor-gridlayer"><g class="x"/><g class="y"/></g><g class="gridlayer"><g class="x"><path class="xgrid crisp" transform="translate(291,0)" d="M0,100v495" style="stroke: rgb(248, 248, 248); stroke-opacity: 1; stroke-width: 1px;"/><path class="xgrid crisp" transform="translate(502,0)" d="M0,100v495" style="stroke: rgb(248, 248, 248); stroke-opacity: 1; stroke-width: 1px;"/><path class="xgrid crisp" transform="translate(713,0)" d="M0,100v495" style="stroke: rgb(248, 248, 248); stroke-opacity: 1; stroke-width: 1px;"/><path class="xgrid crisp" transform="translate(924,0)" d="M0,100v495" style="stroke: rgb(248, 248, 248); stroke-opacity: 1; stroke-width: 1px;"/></g><g class="y"><path class="ygrid crisp" transform="translate(0,481.15)" d="M80,0h1055" style="stroke: rgb(248, 248, 248); stroke-opacity: 1; stroke-width: 1px;"/><path class="ygrid crisp" transform="translate(0,392.05)" d="M80,0h1055" style="stroke: rgb(248, 248, 248); stroke-opacity: 1; stroke-width: 1px;"/><path class="ygrid crisp" transform="translate(0,302.95)" d="M80,0h1055" style="stroke: rgb(248, 248, 248); stroke-opacity: 1; stroke-width: 1px;"/><path class="ygrid crisp" transform="translate(0,213.85)" d="M80,0h1055" style="stroke: rgb(248, 248, 248); stroke-opacity: 1; stroke-width: 1px;"/><path class="ygrid crisp" transform="translate(0,124.75)" d="M80,0h1055" style="stroke: rgb(248, 248, 248); stroke-opacity: 1; stroke-width: 1px;"/></g></g><g class="zerolinelayer"><path class="yzl zl crisp" transform="translate(0,570.25)" d="M80,0h1055" style="stroke: rgb(255, 255, 255); stroke-opacity: 1; stroke-width: 2px;"/></g><path class="xlines-below"/><path class="ylines-below"/><g class="overlines-below"/><g class="xaxislayer-below"/><g class="yaxislayer-below"/><g class="overaxes-below"/><g class="plot" transform="translate(80,100)" clip-path="url(#clipad45a5xyplot)"><g class="scatterlayer mlayer"><g class="trace scatter trace087d5e" style="stroke-miterlimit: 2; opacity: 1;"><g class="fills"/><g class="errorbars"/><g class="lines"><path class="js-line" d="M0,470.25L78.28,469.56L78.49,469.43L81.66,468.15L81.87,468.11L83.77,468.59L83.98,468.76L86.93,470.2L87.14,470.21L90.52,469.65L90.73,469.42L94.32,464.34L94.53,464.26L101.7,460.92L101.91,460.63L104.02,457.61L104.23,457.75L104.45,457.98L106.13,458.88L106.34,458.79L107.82,458.96L108.03,459.06L108.88,458.73L109.09,458.44L111.2,456.07L111.41,456.12L113.52,456.63L113.73,456.34L118.58,448.27L118.79,448.01L124.49,440.05L124.7,439.67L134.41,421.19L134.62,420.73L142,402.79L142.21,402.22L148.76,382.11L148.97,381.37L155.3,356.34L155.51,355.4L162.47,320.55L162.68,319.39L173.23,256.43L173.44,255.15L181.67,209.5L181.88,208.5L186.74,188.93L186.95,188.24L190.96,177.66L191.17,177.23L194.75,171.85L194.96,171.63L198.55,169.22L198.76,169.14L202.77,168.4L202.98,168.39L210.37,167L210.58,166.9L214.59,164.17L214.8,163.98L219.44,158.59L219.65,158.3L226.19,147.66L226.4,147.28L244.97,114.07L245.18,113.78L250.25,107.79L250.46,107.59L255.94,103.35L256.15,103.22L265.44,96.49L265.65,96.28L271.56,89.35L271.77,89.08L279.15,80.47L279.36,80.29L283.16,78.42L283.37,78.39L286.33,78.84L286.54,78.93L289.91,81.32L290.13,81.52L299.62,90.16L299.83,90.23L302.36,90.12L302.57,90.03L304.9,88.13L305.11,87.87L307.85,83.2L308.06,82.74L311.86,72.35L312.07,71.67L324.73,30.44L324.94,30.01L327.89,25.73L328.1,25.55L330.43,24.77L330.64,24.8L332.54,25.89L332.75,26.09L335.28,29.74L335.49,30.13L339.08,38.69L339.29,39.28L345.41,59.02L345.62,59.75L365.03,124.57L365.24,125.25L403.22,248.42L403.43,248.93L407.65,256.99L407.86,257.29L411.03,260.29L411.24,260.4L413.98,260.78L414.19,260.73L417.15,259.11L417.36,258.94L421.58,254.37L421.79,254.11L427.7,248.13L427.91,248L430.65,247.31L430.86,247.33L433.18,248.39L433.39,248.56L436.14,251.93L436.35,252.27L439.94,259.75L440.15,260.28L446.48,278.26L446.69,278.89L453.86,297.88L454.07,298.34L458.93,307.2L459.14,307.52L465.04,314.97L465.26,315.2L482.98,333.9L483.19,334.03L486.78,335.58L486.99,335.62L490.36,335.56L490.58,335.51L495.01,333.5L495.22,333.37L505.56,327.43L505.77,327.39L508.93,327.47L509.14,327.53L512.31,329.18L512.52,329.35L516.32,333.38L516.53,333.66L522.23,342.77L522.44,343.15L533.83,362.35L534.04,362.63L538.89,367.65L539.11,367.8L543.11,369.74L543.32,369.79L547.12,369.74L547.33,369.69L551.13,368.06L551.34,367.93L558.31,362.75L558.52,362.59L563.79,359.51L564,359.44L567.17,359.12L567.38,359.15L570.54,360.48L570.76,360.63L573.92,363.74L574.13,364.01L578.14,370.3L578.35,370.69L584.89,384.74L585.1,385.23L599.24,416.55L599.45,416.94L605.78,426.9L605.99,427.17L611.06,432.55L611.27,432.73L615.7,435.43L615.91,435.51L620.13,436.32L620.34,436.32L624.35,435.58L624.56,435.5L628.57,434.49L628.78,434.76L629.83,435.43L630.05,435.16L632.79,430.58L633,430.42L642.5,424.41L642.71,424.33L647.35,423.3L647.56,423.38L656,426.27L656.21,426.38L674.15,436.02L674.36,436.11L688.28,440.65L688.49,440.7L699.89,442.68L700.1,442.7L718.67,443.73L718.88,443.73L727.74,443L727.95,442.96L734.28,442.27L734.49,442.58L735.97,444.73L736.18,444.53L736.39,444.15L738.5,440.69L738.71,440.63L742.93,439.43L743.14,438.92L744.2,433.15L744.41,431.73L745.25,428.57L745.46,428.73L745.67,429.29L748.21,440.2L748.42,440.28L756.44,442.91L756.65,443L775.43,451.24L775.64,451.3L783.65,453.2L783.87,453.23L808.97,458.56L809.19,458.68L810.24,460.3L810.45,460.85L811.93,462.93L812.14,462.73L814.67,459.8L814.88,459.83L831.55,462.26L831.76,462.28L854.13,465.65L854.34,465.9L856.24,467.14L856.45,466.96L858.98,464.92L859.19,464.91L877.97,464.16L878.18,464.15L904.35,464.84L904.56,464.85L929.03,465.54L929.24,465.62L931.99,466.67L932.2,466.52L934.52,465.63L934.73,465.63L971.02,466.61L971.23,466.6L995.71,466L995.92,466.21L998.24,468.16L998.45,468.12L1000.14,466.8L1000.35,466.59L1002.67,465.53L1002.88,465.47L1007.53,465.1L1007.74,465.11L1022.51,466.47L1022.72,466.49L1026.94,467.78L1027.15,467.96L1028.84,468.48L1029.05,468.46L1033.9,468.51L1034.11,468.58L1039.81,470.25L1040.02,470.25L1044.45,469.51L1044.66,469.41L1046.77,469.15L1046.98,469.16L1055,469.54" style="vector-effect: non-scaling-stroke; fill: none; stroke: rgb(99, 110, 250); stroke-opacity: 1; stroke-width: 2px; opacity: 1;"/></g><g class="points"/><g class="text"/></g><g class="trace scatter trace1f6ead" style="stroke-miterlimit: 2; opacity: 1;"><g class="fills"/><g class="errorbars"/><g class="lines"><path class="js-line" d="M0,470.25L70.26,469.56L70.47,469.42L73.64,468.02L73.85,468.07L76.38,468.13L76.59,468.03L81.66,464.68L81.87,464.25L85.67,455.22L85.88,455.35L87.35,457.87L87.57,458.3L89.25,460.42L89.46,460.27L90.31,458.26L90.52,457.41L92.42,445.04L92.63,443.37L95.37,427.09L95.58,426.16L98.33,411.88L98.54,410.11L102.97,371.64L103.18,370.48L117.32,296.45L117.53,295.43L138.42,198.58L138.63,197.69L145.8,170.8L146.01,170.11L152.34,152.06L152.55,151.53L171.97,102.08L172.18,101.47L180.83,78.61L181.04,78.15L185.89,69.46L186.1,69.16L191.17,63.38L191.38,63.19L201.93,52.34L202.14,52.05L208.47,42.09L208.68,41.73L216.7,29.44L216.91,29.19L220.92,25.71L221.13,25.6L224.29,24.75L224.5,24.75L227.88,25.6L228.09,25.7L232.94,29.04L233.16,29.21L240.96,34.61L241.17,34.7L245.39,35.71L245.6,35.72L254.68,36.91L254.89,37.03L257.84,39.56L258.05,39.81L261.43,45.3L261.64,45.74L265.65,55.99L265.86,56.63L272.4,78.92L272.61,79.67L279.15,100.35L279.36,100.88L283.58,108.99L283.8,109.26L286.54,111.5L286.75,111.58L289.07,111.54L289.28,111.46L291.81,109.56L292.02,109.32L294.98,105.03L295.19,104.65L299.83,94.72L300.04,94.21L317.98,50.34L318.19,49.96L322.62,43.47L322.83,43.25L326,40.94L326.21,40.86L328.74,40.79L328.95,40.86L331.48,42.62L331.69,42.84L334.44,46.96L334.65,47.37L338.23,56.14L338.44,56.76L342.66,71.08L342.88,71.87L355.32,117.17L355.54,117.76L360.18,128.5L360.39,128.9L367.98,141.42L368.2,141.79L372.63,151.04L372.84,151.57L377.27,164.9L377.48,165.64L384.44,193.27L384.65,194.15L391.62,220.28L391.83,220.93L395.84,230.78L396.05,231.17L399.21,235.42L399.42,235.6L402.17,236.93L402.38,236.96L405.33,236.49L405.54,236.4L409.97,233.51L410.18,233.35L428.75,218.62L428.96,218.35L432.55,212.36L432.76,211.92L436.35,202.62L436.56,201.97L440.99,185.37L441.2,184.45L447.32,154.38L447.53,153.27L456.39,110.3L456.6,109.47L461.25,94.73L461.46,94.23L464.83,88.27L465.04,88.02L467.79,86.13L468,86.08L470.11,86.33L470.32,86.42L472.85,88.58L473.06,88.85L476.02,93.82L476.23,94.27L479.81,103.85L480.03,104.52L484.46,121.61L484.67,122.55L490.79,153.91L491,155.09L501.76,211.55L501.97,212.42L505.98,225.8L506.19,226.33L509.14,231.73L509.35,231.97L511.68,233.31L511.89,233.32L513.79,232.49L514,232.3L516.32,229L516.53,228.59L519.48,221.06L519.69,220.4L523.7,204.99L523.91,204.04L529.61,174.31L529.82,173.09L544.8,88.41L545.01,87.52L549.02,73.48L549.23,72.91L552.61,66.12L552.82,65.85L555.35,63.84L555.56,63.77L557.88,64.09L558.1,64.2L560.63,66.55L560.84,66.81L564.64,73.1L564.85,73.51L578.35,99.6L578.56,99.91L589.32,116.56L589.53,117.01L592.91,125.68L593.12,126.32L597.34,141.62L597.55,142.51L602.83,168.22L603.04,169.36L618.02,248.91L618.23,249.78L623.08,266.53L623.29,267.12L628.15,277.87L628.36,278.23L633,284.55L633.21,284.79L648.19,301.43L648.4,301.73L656.84,315.51L657.05,315.88L668.03,332.66L668.24,332.91L673.72,338.08L673.93,338.23L679.21,340.72L679.42,340.77L683.85,341.26L684.06,341.25L689.76,340.26L689.97,340.2L697.99,337.14L698.2,337.05L706.85,334.49L707.06,334.47L711.49,334.74L711.7,334.8L715.5,336.4L715.71,336.53L719.72,339.85L719.93,340.08L724.15,345.51L724.36,345.83L729.64,355.18L729.85,355.6L740.61,379.3L740.82,379.77L749.47,397.37L749.68,397.75L756.22,408.11L756.44,408.4L763.19,416.48L763.4,416.7L771.63,424.25L771.84,424.42L782.18,432.32L782.39,432.47L790.41,437.31L790.62,437.41L798,440.45L798.21,440.52L825.85,448.96L826.07,449L833.24,449.3L833.45,449.28L839.15,447.99L839.36,447.92L847.38,444.09L847.59,443.97L860.25,437.53L860.46,437.46L865.73,436.73L865.94,436.73L871.43,437.71L871.64,437.77L880.71,441.58L880.93,441.71L882.19,443.61L882.4,444.09L883.46,445.2L883.67,445.03L883.88,444.76L885.57,443.53L885.78,443.59L888.31,445.09L888.52,445.51L889.79,447.5L890,447.32L890.21,447L891.9,445.49L892.11,445.53L898.02,446.64L898.23,446.28L899.49,441.21L899.7,440.38L900.34,439.16L900.55,439.29L900.76,439.69L903.71,449.31L903.92,449.41L911.73,453.53L911.94,453.94L914.47,460.55L914.69,460.45L914.9,460.24L917.64,457.13L917.85,457.24L919.33,457.29L919.54,457.16L921.23,456.97L921.44,457.03L930.72,458.94L930.93,458.96L954.56,462.43L954.78,462.78L956.67,465.05L956.89,464.89L959.42,462.78L959.63,462.82L977.99,467.03L978.2,467.29L980.94,470.15L981.15,470.18L989.59,470.25L989.8,470.25L993.81,469.66L994.02,469.46L996.34,467.98L996.55,467.94L1000.98,467.4L1001.2,467.48L1004.99,468.15L1005.2,468.15L1012.38,468.25L1012.59,468.26L1024.62,468.99L1024.83,469.11L1027.57,470.23L1027.78,470.24L1039.39,469.55L1039.6,469.41L1044.24,467.39L1044.45,467.5L1048.04,469.05L1048.25,469.07L1053.52,469.72L1053.73,469.62L1055,469.25" style="vector-effect: non-scaling-stroke; fill: none; stroke: rgb(239, 85, 59); stroke-opacity: 1; stroke-width: 2px; opacity: 1;"/></g><g class="points"/><g class="text"/></g><g class="trace scatter trace177dcb" style="stroke-miterlimit: 2; opacity: 1;"><g class="fills"/><g class="errorbars"/><g class="lines"><path class="js-line" d="M0,470.25L79.55,467.82L79.76,467.72L87.35,465.42L87.57,465.58L90.1,465.62L90.52,464.84L90.73,464.32L105.08,427.52L105.29,427.42L109.93,419.54L110.14,418.94L131.88,361.07L132.09,360.38L153.82,279.42L154.03,278.51L171.75,190.76L171.97,189.65L185.68,130.75L185.89,130.16L193.91,115.01L194.12,114.78L204.88,106.7L205.09,106.54L216.91,94.73L217.12,94.48L234.84,77.26L235.05,77.1L256.15,64.62L256.37,64.62L263.75,67.8L263.96,67.97L290.55,89.42L290.76,89.44L297.72,87.28L297.93,87.11L304.26,78.89L304.47,78.49L312.7,58.01L312.91,57.39L326,26.36L326.21,26.15L330.85,25.26L331.06,25.4L335.49,31.58L335.7,32.03L342.88,53.51L343.09,54.28L363.98,121.59L364.19,122.1L379.17,165.67L379.38,166.43L400.06,233.57L400.27,233.96L407.86,242.28L408.07,242.36L414.19,241.78L414.4,241.67L424.11,233.37L424.32,233.16L437.83,223.67L438.04,223.58L453.23,220.24L453.44,220.22L465.04,221.4L465.26,221.51L472.85,228.48L473.06,228.76L485.93,250.75L486.14,251.14L504.29,278.24L504.5,278.46L514.21,284.67L514.42,284.73L523.7,284.57L523.91,284.51L534.46,278.8L534.67,278.63L547.76,265.12L547.97,264.87L560.63,254.16L560.84,254.11L566.96,255.47L567.17,255.62L573.71,263.45L573.92,263.8L583.84,285.42L584.05,285.97L604.09,346.52L604.3,347.13L616.96,375.16L617.17,375.45L624.77,381.04L624.98,381.08L630.89,381.44L631.1,381L635.74,378.29L635.95,378.2L646.08,376.54L646.29,376.59L658.11,386.1L658.32,386.31L674.78,400.04L674.99,400.15L689.34,404.68L689.55,404.71L730.27,410.75L730.48,410.83L735.33,415.52L735.55,415.93L736.39,416.12L737.66,414.58L737.87,414.54L743.78,414.99L743.99,414.13L745.25,410.88L746.31,414.65L746.52,415.86L750.11,422.76L750.32,422.93L777.32,441.72L777.54,441.82L800.32,449.58L800.53,449.64L811.3,455.23L811.51,455.4L821.42,455.23L821.63,455.28L841.47,456.79L841.68,456.77L881.56,455.46L881.77,455.58L886.41,455.98L886.62,456.01L898.86,456.48L899.07,456.15L900.55,454.9L901.6,456.31L901.81,456.71L905.82,458.84L906.03,458.88L920.17,461.54L920.38,461.53L999.93,467L1000.14,466.88L1007.74,466.33L1007.95,466.35L1055,469.39" style="vector-effect: non-scaling-stroke; fill: none; stroke: rgb(0, 0, 0); stroke-opacity: 1; stroke-width: 10px; opacity: 1;"/></g><g class="points"/><g class="text"/></g></g></g><g class="overplot"/><path class="xlines-above crisp" d="M79,595.5H1136M79,99.5H1136" style="fill: none; stroke-width: 1px; stroke: rgb(0, 0, 0); stroke-opacity: 1;"/><path class="ylines-above crisp" d="M79.5,100V595M1135.5,100V595" style="fill: none; stroke-width: 1px; stroke: rgb(0, 0, 0); stroke-opacity: 1;"/><g class="overlines-above"/><g class="xaxislayer-above"><path class="xtick ticks crisp" d="M0,596v5" transform="translate(80,0)" style="stroke: rgb(68, 68, 68); stroke-opacity: 1; stroke-width: 1px;"/><path class="xtick ticks crisp" d="M0,596v5" transform="translate(291,0)" style="stroke: rgb(68, 68, 68); stroke-opacity: 1; stroke-width: 1px;"/><path class="xtick ticks crisp" d="M0,596v5" transform="translate(502,0)" style="stroke: rgb(68, 68, 68); stroke-opacity: 1; stroke-width: 1px;"/><path class="xtick ticks crisp" d="M0,596v5" transform="translate(713,0)" style="stroke: rgb(68, 68, 68); stroke-opacity: 1; stroke-width: 1px;"/><path class="xtick ticks crisp" d="M0,596v5" transform="translate(924,0)" style="stroke: rgb(68, 68, 68); stroke-opacity: 1; stroke-width: 1px;"/><path class="xtick ticks crisp" d="M0,596v5" transform="translate(1135,0)" style="stroke: rgb(68, 68, 68); stroke-opacity: 1; stroke-width: 1px;"/><g class="xtick"><text text-anchor="middle" x="0" y="615.4" transform="translate(80,0)" style="font-family: 'Open Sans', verdana, arial, sans-serif; font-size: 12px; fill: rgb(42, 63, 95); fill-opacity: 1; white-space: pre; opacity: 1;">0</text></g><g class="xtick"><text text-anchor="middle" x="0" y="615.4" style="font-family: 'Open Sans', verdana, arial, sans-serif; font-size: 12px; fill: rgb(42, 63, 95); fill-opacity: 1; white-space: pre; opacity: 1;" transform="translate(291,0)">1000</text></g><g class="xtick"><text text-anchor="middle" x="0" y="615.4" style="font-family: 'Open Sans', verdana, arial, sans-serif; font-size: 12px; fill: rgb(42, 63, 95); fill-opacity: 1; white-space: pre; opacity: 1;" transform="translate(502,0)">2000</text></g><g class="xtick"><text text-anchor="middle" x="0" y="615.4" style="font-family: 'Open Sans', verdana, arial, sans-serif; font-size: 12px; fill: rgb(42, 63, 95); fill-opacity: 1; white-space: pre; opacity: 1;" transform="translate(713,0)">3000</text></g><g class="xtick"><text text-anchor="middle" x="0" y="615.4" style="font-family: 'Open Sans', verdana, arial, sans-serif; font-size: 12px; fill: rgb(42, 63, 95); fill-opacity: 1; white-space: pre; opacity: 1;" transform="translate(924,0)">4000</text></g><g class="xtick"><text text-anchor="middle" x="0" y="615.4" style="font-family: 'Open Sans', verdana, arial, sans-serif; font-size: 12px; fill: rgb(42, 63, 95); fill-opacity: 1; white-space: pre; opacity: 1;" transform="translate(1135,0)">5000</text></g></g><g class="yaxislayer-above"><path class="ytick ticks crisp" d="M79,0h-5" transform="translate(0,570.25)" style="stroke: rgb(68, 68, 68); stroke-opacity: 1; stroke-width: 1px;"/><path class="ytick ticks crisp" d="M79,0h-5" transform="translate(0,481.15)" style="stroke: rgb(68, 68, 68); stroke-opacity: 1; stroke-width: 1px;"/><path class="ytick ticks crisp" d="M79,0h-5" transform="translate(0,392.05)" style="stroke: rgb(68, 68, 68); stroke-opacity: 1; stroke-width: 1px;"/><path class="ytick ticks crisp" d="M79,0h-5" transform="translate(0,302.95)" style="stroke: rgb(68, 68, 68); stroke-opacity: 1; stroke-width: 1px;"/><path class="ytick ticks crisp" d="M79,0h-5" transform="translate(0,213.85)" style="stroke: rgb(68, 68, 68); stroke-opacity: 1; stroke-width: 1px;"/><path class="ytick ticks crisp" d="M79,0h-5" transform="translate(0,124.75)" style="stroke: rgb(68, 68, 68); stroke-opacity: 1; stroke-width: 1px;"/><g class="ytick"><text text-anchor="end" x="71.6" y="4.199999999999999" transform="translate(0,570.25)" style="font-family: 'Open Sans', verdana, arial, sans-serif; font-size: 12px; fill: rgb(42, 63, 95); fill-opacity: 1; white-space: pre; opacity: 1;">0</text></g><g class="ytick"><text text-anchor="end" x="71.6" y="4.199999999999999" style="font-family: 'Open Sans', verdana, arial, sans-serif; font-size: 12px; fill: rgb(42, 63, 95); fill-opacity: 1; white-space: pre; opacity: 1;" transform="translate(0,481.15)">0.2</text></g><g class="ytick"><text text-anchor="end" x="71.6" y="4.199999999999999" style="font-family: 'Open Sans', verdana, arial, sans-serif; font-size: 12px; fill: rgb(42, 63, 95); fill-opacity: 1; white-space: pre; opacity: 1;" transform="translate(0,392.05)">0.4</text></g><g class="ytick"><text text-anchor="end" x="71.6" y="4.199999999999999" style="font-family: 'Open Sans', verdana, arial, sans-serif; font-size: 12px; fill: rgb(42, 63, 95); fill-opacity: 1; white-space: pre; opacity: 1;" transform="translate(0,302.95)">0.6</text></g><g class="ytick"><text text-anchor="end" x="71.6" y="4.199999999999999" style="font-family: 'Open Sans', verdana, arial, sans-serif; font-size: 12px; fill: rgb(42, 63, 95); fill-opacity: 1; white-space: pre; opacity: 1;" transform="translate(0,213.85)">0.8</text></g><g class="ytick"><text text-anchor="end" x="71.6" y="4.199999999999999" style="font-family: 'Open Sans', verdana, arial, sans-serif; font-size: 12px; fill: rgb(42, 63, 95); fill-opacity: 1; white-space: pre; opacity: 1;" transform="translate(0,124.75)">1</text></g></g><g class="overaxes-above"/></g></g><g class="polarlayer"/><g class="smithlayer"/><g class="ternarylayer"/><g class="geolayer"/><g class="funnelarealayer"/><g class="pielayer"/><g class="iciclelayer"/><g class="treemaplayer"/><g class="sunburstlayer"/><g class="glimages"/><defs id="topdefs-ad45a5"><g class="clips"/><clipPath id="legendad45a5"><rect width="175" height="67" x="0" y="0"/></clipPath></defs><g class="layer-above"><g class="imagelayer"/><g class="shapelayer"/></g><g class="infolayer"><g class="legend" pointer-events="all" transform="translate(1156.1,100)"><rect class="bg" shape-rendering="crispEdges" width="175" height="67" x="0" y="0" style="stroke: rgb(68, 68, 68); stroke-opacity: 1; fill: rgb(255, 255, 255); fill-opacity: 1; stroke-width: 0px;"/><g class="scrollbox" transform="" clip-path="url(#legendad45a5)"><g class="groups"><g class="traces" transform="translate(0,14.5)" style="opacity: 1;"><text class="legendtext" text-anchor="start" x="40" y="4.680000000000001" style="font-family: 'Open Sans', verdana, arial, sans-serif; font-size: 12px; fill: rgb(42, 63, 95); fill-opacity: 1; white-space: pre;">mOvary.subsampled</text><g class="layers" style="opacity: 1;"><g class="legendfill"/><g class="legendlines"><path class="js-line" d="M5,0h30" style="fill: none; stroke: rgb(99, 110, 250); stroke-opacity: 1; stroke-width: 2px;"/></g><g class="legendsymbols"><g class="legendpoints"/></g></g><rect class="legendtoggle" x="0" y="-9.5" width="169.296875" height="19" style="fill: rgb(0, 0, 0); fill-opacity: 0;"/></g><g class="traces" transform="translate(0,33.5)" style="opacity: 1;"><text class="legendtext" text-anchor="start" x="40" y="4.680000000000001" style="font-family: 'Open Sans', verdana, arial, sans-serif; font-size: 12px; fill: rgb(42, 63, 95); fill-opacity: 1; white-space: pre;">mTestis2.subsampled</text><g class="layers" style="opacity: 1;"><g class="legendfill"/><g class="legendlines"><path class="js-line" d="M5,0h30" style="fill: none; stroke: rgb(239, 85, 59); stroke-opacity: 1; stroke-width: 2px;"/></g><g class="legendsymbols"><g class="legendpoints"/></g></g><rect class="legendtoggle" x="0" y="-9.5" width="169.296875" height="19" style="fill: rgb(0, 0, 0); fill-opacity: 0;"/></g><g class="traces" transform="translate(0,52.5)" style="opacity: 1;"><text class="legendtext" text-anchor="start" x="40" y="4.680000000000001" style="font-family: 'Open Sans', verdana, arial, sans-serif; font-size: 12px; fill: rgb(42, 63, 95); fill-opacity: 1; white-space: pre;">Reference</text><g class="layers" style="opacity: 1;"><g class="legendfill"/><g class="legendlines"><path class="js-line" d="M5,0h30" style="fill: none; stroke: rgb(0, 0, 0); stroke-opacity: 1; stroke-width: 10px;"/></g><g class="legendsymbols"><g class="legendpoints"/></g></g><rect class="legendtoggle" x="0" y="-9.5" width="169.296875" height="19" style="fill: rgb(0, 0, 0); fill-opacity: 0;"/></g></g></g><rect class="scrollbar" rx="20" ry="3" width="0" height="0" x="0" y="0" style="fill: rgb(128, 139, 164); fill-opacity: 1;"/></g><g class="g-gtitle"><text class="gtitle" x="67.15" y="50" text-anchor="start" dy="0em" style="font-family: 'Open Sans', verdana, arial, sans-serif; font-size: 17px; fill: rgb(42, 63, 95); opacity: 1; font-weight: normal; white-space: pre;">Normalized smoothened distributions and the Reference distribution</text></g><g class="g-xtitle"/><g class="g-ytitle"/></g></svg>